<svg width="1080" height="1080" viewBox="0 0 1080 1080" fill="none" xmlns="http://www.w3.org/2000/svg">
<g id="cool-businessman 1">
<g id="back">
<path id="Vector" d="M87 149H994V585H87V149Z" fill="#F7F7F7"/>
<g id="Vector_2">
<mask id="path-2-inside-1_73_3" fill="white">
<path d="M966.5 398.16V493.26H958.61V526.92H938.88V507.9H915.33V496.42H942.82V490.11H915.33V474.98H911.93V490.11H906.53V493.26H900.21V475.71H886.8V493.26H864.7V510.82H840.24V483.02H836.29V462.54H832.47V430.58H867.07V424.27H832.47V420.11H829.07V424.27H816.57V430.58H829.07V462.54H812.62V503.51H765.27V472.78H760.66V462.77H780.27V456.46H760.66V453.68H757.26V456.46H754.22V462.77H757.26V472.78H743.18V490.11H718.71V496.42H729.24V506.43H713.98V521.06H706.88V513.75H699.78V398.16H695.04V380.6H680.05V516.67H651.64V380.6H639.8V392.31H633.49V484.48H623.23V509.36H618.5V484.48H598.77V468.39H590.09V449.37H582.2V406.94H569.57V423.03H538.01V484.48H521.43V464H501.71V423.03H452.78V471.32H445.17V484.48H440.16V401.09H434.63V380.6H425.16V398.16H414.9V468.39H410.17V484.48H404.65V434.74H365.98V475.71H353.35V493.26H346.25V503.51H339.15V491.8L334.81 483.76V465.47H315.47V507.9H308.37V497.65H300.48V380.6H294.17V348.42H287.07V332.32H277.6V319H263.39V342.56H255.5V367.44H250.77V453.68H242.09V437.67H231.04V461.08H218.41V393.77L213.68 384.99V354.27H187.64V376.21H174.22V420.11H167.91V411.33H160.02L155.28 420.11L153.23 423.91V525.45H144.24V424.5H136.34V414.25H124.51V430.35H113.46V456.46H107.27V444.98H103.87V456.46H89V462.77H103.87V496.19H102.41V523.99H90.47V585H997.47V398.16H966.5ZM113.46 471.32H107.94V496.19H107.27V462.77H113.46V471.32ZM743.18 506.43H732.65V496.42H743.18V506.43ZM911.93 507.9H906.53V496.42H911.93V507.9Z"/>
</mask>
<path d="M966.5 398.16V493.26H958.61V526.92H938.88V507.9H915.33V496.42H942.82V490.11H915.33V474.98H911.93V490.11H906.53V493.26H900.21V475.71H886.8V493.26H864.7V510.82H840.24V483.02H836.29V462.54H832.47V430.58H867.07V424.27H832.47V420.11H829.07V424.27H816.57V430.58H829.07V462.54H812.62V503.51H765.27V472.78H760.66V462.77H780.27V456.46H760.66V453.68H757.26V456.46H754.22V462.77H757.26V472.78H743.18V490.11H718.71V496.42H729.24V506.43H713.98V521.06H706.88V513.75H699.78V398.16H695.04V380.6H680.05V516.67H651.64V380.6H639.8V392.31H633.49V484.48H623.23V509.36H618.5V484.48H598.77V468.39H590.09V449.37H582.2V406.94H569.57V423.03H538.01V484.48H521.43V464H501.71V423.03H452.78V471.32H445.17V484.48H440.16V401.09H434.63V380.6H425.16V398.16H414.9V468.39H410.17V484.48H404.65V434.74H365.98V475.71H353.35V493.26H346.25V503.51H339.15V491.8L334.81 483.76V465.47H315.47V507.9H308.37V497.65H300.48V380.6H294.17V348.42H287.07V332.32H277.6V319H263.39V342.56H255.5V367.44H250.77V453.68H242.09V437.67H231.04V461.08H218.41V393.77L213.68 384.99V354.27H187.64V376.21H174.22V420.11H167.91V411.33H160.02L155.28 420.11L153.23 423.91V525.45H144.24V424.5H136.34V414.25H124.51V430.35H113.46V456.46H107.27V444.98H103.87V456.46H89V462.77H103.87V496.19H102.41V523.99H90.47V585H997.47V398.16H966.5ZM113.46 471.32H107.94V496.19H107.27V462.77H113.46V471.32ZM743.18 506.43H732.65V496.42H743.18V506.43ZM911.93 507.9H906.53V496.42H911.93V507.9Z" stroke="#050296" stroke-width="6" mask="url(#path-2-inside-1_73_3)"/>
</g>
<path id="Vector_3" d="M1018.91 971H61.09C55.35 971 50.66 966.31 50.66 960.57V914.08C50.66 908.34 55.35 903.65 61.09 903.65H1018.91C1024.65 903.65 1029.34 908.34 1029.34 914.08V960.57C1029.34 966.31 1024.65 971 1018.91 971V971Z" fill="#F2F2F2"/>
</g>
<g id="hand">
<path id="Vector_4" d="M765.5 291L780 268L794 263L807 248L798 234L770 240C770 240 771 224 767 222C764 230 760 243 760 243C760 243 762 261 762 266C760 271 747 284 747 284L765.5 291Z" fill="#FCD2B1"/>
<path id="Vector_5" d="M566.5 390L556 319C556 319 568.374 323.118 576.5 325C646.032 341.105 752 274 752 274L776.5 284C776.5 284 713.495 330.926 670.5 350.5C631.088 368.443 566.5 390 566.5 390Z" fill="#0E538C"/>
</g>
<g id="person">
<path id="Vector_6" d="M428.63 719.41L319.37 736L312 729V641H433.89L447 648.46L428.63 719.41Z" fill="#0E538C"/>
<path id="Vector_7" d="M319.37 648.46H447V736H319.37V648.46Z" fill="#CCE9FF"/>
<path id="Vector_8" d="M393.82 643.86H355.14V625.43C355.14 615.27 363.82 607 374.48 607C385.14 607 393.82 615.27 393.82 625.43V643.86V643.86ZM359.98 639.25H388.99V625.43C388.99 617.81 382.48 611.61 374.49 611.61C366.49 611.61 359.99 617.81 359.99 625.43V639.25H359.98Z" fill="#0E538C"/>
<path id="Vector_9" d="M447 698H319V648H447V698Z" fill="#2A94F4"/>
<path id="Vector_10" d="M365 686H413V710H365V686Z" fill="#2A94F4"/>
<path id="Vector_11" d="M365.73 585C365.73 585 356.56 611.81 359 618C361.44 624.19 387.29 626.99 387.29 626.99L390 606L379.78 585H365.73Z" fill="#FCD2B1"/>
<path id="Vector_12" d="M601.29 935.61L662.55 955.49H587.97V935.61H601.29ZM449.47 935.61L505.41 955.49H431.48L435.27 935.61H449.47Z" fill="#0A3951"/>
<path id="Vector_13" d="M567.29 533.36L608.75 944.67H583.82C583.82 944.67 534.01 766 544.01 731C537.65 702.68 497.46 608.51 506.82 596.53C516.18 584.55 533.32 522.03 533.32 522.03L567.29 533.36Z" fill="#083047"/>
<path id="Vector_14" d="M560.87 539.58L540.77 567.26L457.89 944.67H431.56C431.56 944.67 436.13 754.9 455 731C462.55 688.23 460.49 539.58 474.33 529.52C499.49 528.26 556.13 518.2 556.13 518.2L560.87 539.58V539.58Z" fill="#0A3951"/>
<path id="Vector_15" d="M565 324L561 531L505 526L499 314C507.23 313.23 536.16 313.79 542 313L565 324Z" fill="white"/>
<path id="Vector_16" d="M505.78 206.65C494.2 218.83 491.44 244.2 498.93 256.37C506.42 268.54 522.55 273.66 529.3 279.96C539.26 264.41 554.5 252.96 554.5 252.96L541.86 218.8L524.4 212.65L505.78 206.65V206.65Z" fill="#0E538C"/>
<path id="Vector_17" d="M556.13 283.95V314.69L544.31 332.42L515.93 306.12L527.17 251.67L556.13 283.95Z" fill="#FCD2B1"/>
<path id="Vector_18" d="M588.05 207.02C589.4 246.17 597.2 289.28 593.25 295.74C589.3 302.2 542.37 308.1 534.29 291.24C526.21 274.38 505.5 232.9 515.32 216.17C525.14 199.45 588.05 207.02 588.05 207.02Z" fill="#FFE3CA"/>
<path id="Vector_19" d="M532.19 217.62C535.72 226.71 533.58 244.6 524.49 248.13C525.17 253.54 527.16 263.73 528.04 268.14C528.28 269.34 527.52 270.51 526.32 270.78C523.58 271.4 521.19 272.26 521.08 271.45C520.93 270.28 507.55 220.72 507.55 220.72L532.19 217.62V217.62Z" fill="#0E538C"/>
<path id="Vector_20" d="M521.078 267.97C525.113 266.325 526.536 260.46 524.257 254.87C521.978 249.281 516.859 246.083 512.824 247.728C508.789 249.374 507.366 255.239 509.645 260.828C511.924 266.418 517.043 269.616 521.078 267.97Z" fill="#FFE3CA"/>
<path id="Vector_21" d="M523.17 247.11L527 268.07L523.28 269.98L517.25 240.95L523.17 247.11Z" fill="#0E538C"/>
<path id="Vector_22" d="M544.31 332.42L531.93 350.12L506.81 311.89L515.93 306.12L544.31 332.42ZM544.31 332.42L548.16 350.12L560.87 322.94L556.13 314.69L544.31 332.42Z" fill="#F2F2F2"/>
<path id="Vector_23" d="M546.9 344.32L544.31 351.55L557.05 475.68C557.05 475.68 545.08 507.53 544.01 504.01C542.94 500.49 526.49 472.82 526.49 472.82L537.29 351.74L536.04 344.26L544.32 332.43L546.9 344.32Z" fill="#FFBE55"/>
<path id="Vector_24" d="M507.14 219.77C502.12 216.97 500.95 209.76 503.39 204.55C505.83 199.34 510.9 195.87 516.09 193.4C524.263 189.521 533.193 187.5 542.24 187.48C546.46 187.48 550.68 187.91 554.88 187.46C559.07 187.01 563.35 185.56 566.17 182.42C568.99 179.29 569.89 174.21 567.42 170.79C576.26 175.96 584.4 182.34 591.54 189.68C592.41 185.08 591.79 180.22 589.81 175.98C593.7 180.71 597.63 185.49 600.35 190.97C603.08 196.45 604.54 202.78 603.21 208.76C601.37 217.03 594.39 223.42 586.56 226.65C578.73 229.88 570.08 230.43 561.61 230.63C552.09 230.85 542.45 230.67 533.22 228.31C523.99 225.95 516.85 227.5 511 219.99L507.14 219.77V219.77ZM556.36 268.9L555.22 268.98C547.78 269.51 541.31 263.91 540.78 256.47L540.11 247.12L568.2 245.11L568.87 254.46C569.4 261.91 563.8 268.37 556.36 268.9ZM588.86 266.49C582.55 266.94 577.06 262.19 576.61 255.87L575.8 244.48L598.66 242.85L599.47 254.24C599.92 260.55 595.17 266.04 588.86 266.49Z" fill="#0E538C"/>
<path id="Vector_25" d="M564.859 247.995L578.863 246.994L579.149 250.984L565.144 251.984L564.859 247.995Z" fill="#0E538C"/>
<path id="Vector_26" d="M542 256L514.74 245.97L515.26 244.03L541.94 248.51L542 256ZM507 312C507 312 454 324 438 332C422 340 351 449 361 594C373 594 394 585 394 585C394 585 379 428 460 396C461 437 437 594 437 594L517.25 584.94L507 312ZM561 322L557 585L585 594L579 384C603.5 384 579 328 579 328C568 323 561 322 561 322Z" fill="#0E538C"/>
</g>
<g id="right">
<path id="Vector_27" d="M928.79 932.01C953.98 932.01 964.62 911.89 968.8 890.55C973.53 866.47 970.06 840.84 970.06 840.84H887.52C887.52 840.84 887.39 841.82 887.21 843.56C885.67 858.72 880.7 932.01 928.79 932.01V932.01Z" fill="#B6E7FF"/>
<path id="Vector_28" d="M887.52 840.84C887.52 842.64 906 844.1 928.79 844.1C951.58 844.1 970.06 842.64 970.06 840.84C970.06 839.04 951.58 837.58 928.79 837.58C905.99 837.58 887.52 839.04 887.52 840.84Z" fill="#85DDFF"/>
<path id="Vector_29" d="M817.03 612.01C817.03 612.01 860.56 678.23 886.67 718.65C912.78 759.07 919.63 767.46 922.74 780.52C925.85 793.58 928.65 841.77 928.65 841.77H930.58C930.58 841.77 929.91 800.87 927.55 787.1C925.27 773.79 927.71 769.02 929.58 755.03C931.45 741.04 933.93 718.65 919.79 703.11C905.64 687.56 909.37 672.33 904.4 662.07C899.42 651.81 860.87 639.37 855.9 628.8C850.91 618.23 829.15 611.7 817.03 612.01V612.01Z" fill="#2A94F4"/>
<path id="Vector_30" d="M817.03 612.01C817.03 612.01 830.71 627.56 840.04 632.84C849.37 638.12 853.72 633.46 860.87 646.21C868.02 658.96 868.3 664.55 874.84 671.08C881.39 677.61 889.16 677.92 889.78 692.22C890.4 706.52 886.67 718.65 886.67 718.65C886.67 718.65 819.82 615.43 817.03 612.01V612.01Z" fill="#41AAF7"/>
<path id="Vector_31" d="M925.2 841.78H923.25C923.25 841.78 922.67 828.54 917.41 822.11C914.02 817.96 899.61 813.25 885.37 807.61C877.53 804.5 869.73 801.11 863.86 797.37C847.3 786.85 831.52 752.96 830.17 746.92C829.69 744.82 829.48 743.54 829.49 742.67V742.65C829.53 741.03 830.33 740.78 831.72 739.14C832.39 738.35 834.41 738.62 836.87 739.37C844.01 741.55 850.04 746.44 853.77 752.9C857.22 758.88 862.74 766.35 869.5 768.16C881.19 771.28 880.22 773.22 884.53 785.11C888.83 797 899.7 798.94 913.33 812.96C926.95 826.97 925.2 841.78 925.2 841.78V841.78Z" fill="#2A94F4"/>
<path id="Vector_32" d="M885.36 807.6C877.52 804.49 869.72 801.1 863.85 797.36C847.29 786.84 831.51 752.95 830.16 746.91C829.68 744.81 829.47 743.53 829.48 742.66C829.53 743.06 830.3 748.42 838.92 751.99C847.87 755.68 849.63 755.68 850.79 761.34C851.96 766.98 852.94 773.03 857.61 774.2C862.28 775.37 865.21 770.11 868.9 778.68C872.6 787.25 874.37 790.17 877.77 791.34C881.17 792.51 883.75 790.76 884.51 797.38C884.97 801.41 885.23 805.24 885.36 807.6V807.6Z" fill="#41AAF7"/>
<path id="Vector_33" d="M939.51 841.78H941.82C941.82 841.78 946.34 759.79 952.56 752.18C956.57 747.27 969.82 738.46 986.69 731.78C995.98 728.1 1005.21 724.08 1012.17 719.66C1031.78 707.2 1050.47 667.06 1052.07 659.91C1052.64 657.42 1052.89 655.91 1052.87 654.87V654.84C1052.83 652.92 1051.87 652.63 1050.23 650.69C1049.44 649.75 1047.05 650.08 1044.13 650.96C1035.67 653.54 1028.54 659.33 1024.11 666.99C1020.02 674.07 1013.48 682.92 1005.47 685.06C991.63 688.76 992.78 691.05 987.67 705.13C982.58 719.21 969.7 721.5 953.57 738.11C937.43 754.71 939.51 841.78 939.51 841.78V841.78Z" fill="#2A94F4"/>
<path id="Vector_34" d="M986.69 731.77C995.98 728.09 1005.21 724.07 1012.17 719.65C1031.78 707.19 1050.47 667.05 1052.07 659.9C1052.64 657.41 1052.89 655.9 1052.87 654.86C1052.81 655.33 1051.9 661.68 1041.69 665.91C1031.09 670.28 1029.01 670.28 1027.63 676.98C1026.25 683.67 1025.08 690.82 1019.55 692.21C1014.01 693.59 1010.55 687.37 1006.18 697.51C1001.79 707.66 999.7 711.12 995.68 712.5C991.65 713.88 988.59 711.81 987.69 719.66C987.15 724.44 986.84 728.98 986.69 731.77Z" fill="#41AAF7"/>
<path id="Vector_35" d="M928.79 932.01C953.98 932.01 964.62 911.89 968.8 890.55C944.11 881.19 913.01 866.18 887.21 843.56C885.67 858.72 880.7 932.01 928.79 932.01Z" fill="#CCE9FF"/>
</g>
<g id="left">
<path id="Vector_36" d="M109.72 934.67C123.63 934.67 129.5 923.56 131.81 911.78C134.42 898.49 132.5 884.34 132.5 884.34H86.94C86.94 884.34 86.87 884.88 86.77 885.84C85.92 894.2 83.17 934.67 109.72 934.67Z" fill="#B6E7FF"/>
<path id="Vector_37" d="M86.94 884.33C86.94 885.33 97.14 886.13 109.73 886.13C122.31 886.13 132.52 885.32 132.52 884.33C132.52 883.33 122.32 882.53 109.73 882.53C97.14 882.53 86.94 883.34 86.94 884.33Z" fill="#85DDFF"/>
<path id="Vector_38" d="M35 733.01C35 733.01 63.77 776.77 81.02 803.49C98.27 830.21 102.8 835.75 104.85 844.38C106.91 853.01 108.75 884.86 108.75 884.86H111.01C111.01 884.86 112.45 857.94 109.78 849.11C107.11 840.28 108.14 836.78 109.37 827.54C110.6 818.29 112.25 803.5 102.9 793.23C93.55 782.96 96.02 772.89 92.73 766.11C89.44 759.33 63.96 751.11 60.68 744.13C57.4 737.12 43.01 732.8 35 733.01V733.01Z" fill="#2A94F4"/>
<path id="Vector_39" d="M41.29 733.01C41.29 733.01 50.33 743.28 56.49 746.78C62.65 750.27 65.53 747.19 70.26 755.61C74.99 764.03 75.17 767.73 79.49 772.05C83.82 776.36 88.95 776.57 89.36 786.02C89.77 795.47 87.31 803.48 87.31 803.48C87.31 803.48 43.14 735.27 41.29 733.01V733.01Z" fill="#41AAF7"/>
<path id="Vector_40" d="M118.33 884.33L119.98 883.84C119.98 883.84 117.12 872.52 119.94 865.76C121.75 861.4 132.72 853.78 143.32 845.41C149.15 840.8 154.88 835.97 158.89 831.33C170.21 818.26 174.95 785.66 174.57 780.22C174.44 778.32 174.3 777.19 174.07 776.46L174.06 776.44C173.62 775.08 172.88 775.07 171.29 774.05C170.53 773.55 168.89 774.29 167 775.55C161.52 779.19 157.67 784.84 156.16 791.25C154.76 797.17 151.99 804.87 146.74 808.11C137.66 813.7 138.97 815.09 138.34 826.22C137.72 837.34 129.03 841.73 121.08 857.01C113.11 872.28 118.33 884.33 118.33 884.33Z" fill="#2A94F4"/>
<path id="Vector_41" d="M143.32 845.41C149.15 840.8 154.88 835.97 158.89 831.33C170.21 818.26 174.95 785.66 174.57 780.22C174.44 778.32 174.3 777.19 174.07 776.46C174.13 776.81 174.84 781.53 168.46 786.72C161.84 792.1 160.36 792.55 160.8 797.62C161.24 802.68 161.94 808.03 158.29 810.2C154.64 812.37 150.84 808.67 149.89 816.83C148.93 825 148.18 827.91 145.6 829.76C143.02 831.61 140.4 830.78 141.44 836.57C142.08 840.08 142.83 843.38 143.32 845.41V845.41Z" fill="#41AAF7"/>
<path id="Vector_42" d="M109.72 934.67C123.63 934.67 129.5 923.56 131.81 911.78C118.18 906.61 101.01 898.32 86.77 885.84C85.92 894.2 83.17 934.67 109.72 934.67V934.67Z" fill="#CCE9FF"/>
</g>
</g>
</svg>
