<svg width="300" height="210" viewBox="0 0 300 210" fill="none" xmlns="http://www.w3.org/2000/svg">
<path d="M68.4184 9.50378L3.55881 200.669C2.14842 204.826 7.49453 207.891 10.3695 204.574L99.5815 101.637C103.691 96.8947 111.102 97.0656 114.989 101.992L142.603 136.991C146.622 142.084 154.35 142.062 158.34 136.947L185.492 102.128C189.375 97.1485 196.843 96.9695 200.96 101.757L289.957 205.251C292.829 208.591 298.201 205.515 296.775 201.348L231.151 9.59153C228.896 3.00248 220.765 0.678492 215.369 5.08076L156.76 52.8933C153.108 55.8724 147.872 55.8974 144.192 52.9533L84.1351 4.90807C78.7199 0.575897 70.6465 2.93661 68.4184 9.50378Z" stroke="#05FF00" stroke-width="5"/>
</svg>
