<svg width="303" height="209" viewBox="0 0 303 209" fill="none" xmlns="http://www.w3.org/2000/svg">
<path d="M73 4.5L77 3.5H78.5L80 4L82 3.5L85 3L87 3.5L89 4.5L149 56L151 57.5L152 57L213 5L217.5 3L219.5 3.5L222.5 4L225.5 3H227.5L229 3.5L232 5L234.5 7.5L300 199.5L300.5 201V202.5L299 205L296.5 206L294.5 205.5L293 204L292 205L289 206H288L286 204.5L198 99.5L197 98.5L195.5 98L194 98.5L191.5 100.5L163.5 135.5L161 137.5L157.5 139.5H155.5L151 139L148.5 139.5H146.5L143 139L140.5 137L113 101L111.5 99.5L110.5 98.5H108.5L106.5 99.5L17.5 204L16 205.5L12 206.5L10 204.5L8 206L6.5 206.5L4.5 206L2.5 204.5L2 203V201L67.5 9.5L69 7L73 4.5Z" stroke="black" stroke-width="4"/>
</svg>
